<mxfile host="app.diagrams.net" modified="2023-05-25T03:06:46.185Z" agent="Mozilla/5.0 (Macintosh; Intel Mac OS X 10_15_7) AppleWebKit/537.36 (KHTML, like Gecko) Chrome/113.0.0.0 Safari/537.36" etag="uMW8qo5dfs-3j85-huWR" version="21.3.3" type="github">
  <diagram name="Page-1" id="VDXZg0AQhAXVl63cu9qr">
    <mxGraphModel dx="2385" dy="2789" grid="1" gridSize="10" guides="1" tooltips="1" connect="1" arrows="1" fold="1" page="1" pageScale="1" pageWidth="827" pageHeight="1169" math="0" shadow="0">
      <root>
        <mxCell id="0" />
        <mxCell id="1" parent="0" />
        <mxCell id="xTqQnHfFAKbFyNQKmXy7-5" value="" style="edgeStyle=orthogonalEdgeStyle;rounded=0;orthogonalLoop=1;jettySize=auto;html=1;fillColor=#fff2cc;strokeColor=#d6b656;" edge="1" parent="1" source="xTqQnHfFAKbFyNQKmXy7-1" target="xTqQnHfFAKbFyNQKmXy7-2">
          <mxGeometry relative="1" as="geometry" />
        </mxCell>
        <mxCell id="xTqQnHfFAKbFyNQKmXy7-1" value="Encoder" style="rounded=1;whiteSpace=wrap;html=1;fillColor=#fff2cc;strokeColor=#d6b656;" vertex="1" parent="1">
          <mxGeometry x="270" y="50" width="120" height="60" as="geometry" />
        </mxCell>
        <mxCell id="xTqQnHfFAKbFyNQKmXy7-9" value="" style="edgeStyle=orthogonalEdgeStyle;rounded=0;orthogonalLoop=1;jettySize=auto;html=1;fillColor=#fff2cc;strokeColor=#d6b656;" edge="1" parent="1" source="xTqQnHfFAKbFyNQKmXy7-2" target="xTqQnHfFAKbFyNQKmXy7-8">
          <mxGeometry relative="1" as="geometry" />
        </mxCell>
        <mxCell id="xTqQnHfFAKbFyNQKmXy7-2" value="Normlization" style="rounded=1;whiteSpace=wrap;html=1;fillColor=#fff2cc;strokeColor=#d6b656;" vertex="1" parent="1">
          <mxGeometry x="270" y="170" width="120" height="60" as="geometry" />
        </mxCell>
        <mxCell id="xTqQnHfFAKbFyNQKmXy7-3" value="Physical Channel" style="rounded=1;whiteSpace=wrap;html=1;fillColor=#f8cecc;strokeColor=#b85450;" vertex="1" parent="1">
          <mxGeometry x="450" y="400" width="120" height="60" as="geometry" />
        </mxCell>
        <mxCell id="xTqQnHfFAKbFyNQKmXy7-15" value="" style="edgeStyle=orthogonalEdgeStyle;rounded=0;orthogonalLoop=1;jettySize=auto;html=1;fillColor=#ffe6cc;strokeColor=#d79b00;" edge="1" parent="1" source="xTqQnHfFAKbFyNQKmXy7-4" target="xTqQnHfFAKbFyNQKmXy7-14">
          <mxGeometry relative="1" as="geometry" />
        </mxCell>
        <mxCell id="xTqQnHfFAKbFyNQKmXy7-4" value="Binarizer" style="rounded=1;whiteSpace=wrap;html=1;fillColor=#ffe6cc;strokeColor=#d79b00;" vertex="1" parent="1">
          <mxGeometry x="630" y="290" width="120" height="60" as="geometry" />
        </mxCell>
        <mxCell id="xTqQnHfFAKbFyNQKmXy7-7" value="" style="edgeStyle=orthogonalEdgeStyle;rounded=0;orthogonalLoop=1;jettySize=auto;html=1;fillColor=#fff2cc;strokeColor=#d6b656;" edge="1" parent="1" source="xTqQnHfFAKbFyNQKmXy7-6" target="xTqQnHfFAKbFyNQKmXy7-1">
          <mxGeometry relative="1" as="geometry" />
        </mxCell>
        <mxCell id="xTqQnHfFAKbFyNQKmXy7-6" value="Input data" style="rounded=1;whiteSpace=wrap;html=1;fillColor=#fff2cc;strokeColor=#d6b656;" vertex="1" parent="1">
          <mxGeometry x="270" y="-70" width="120" height="60" as="geometry" />
        </mxCell>
        <mxCell id="xTqQnHfFAKbFyNQKmXy7-8" value="Binarizer" style="rounded=1;whiteSpace=wrap;html=1;fillColor=#fff2cc;strokeColor=#d6b656;" vertex="1" parent="1">
          <mxGeometry x="270" y="290" width="120" height="60" as="geometry" />
        </mxCell>
        <mxCell id="xTqQnHfFAKbFyNQKmXy7-10" value="" style="endArrow=none;html=1;rounded=0;entryX=0.5;entryY=1;entryDx=0;entryDy=0;" edge="1" parent="1" target="xTqQnHfFAKbFyNQKmXy7-8">
          <mxGeometry width="50" height="50" relative="1" as="geometry">
            <mxPoint x="330" y="430" as="sourcePoint" />
            <mxPoint x="330" y="440" as="targetPoint" />
          </mxGeometry>
        </mxCell>
        <mxCell id="xTqQnHfFAKbFyNQKmXy7-11" value="" style="endArrow=classic;html=1;rounded=0;entryX=0;entryY=0.5;entryDx=0;entryDy=0;" edge="1" parent="1" target="xTqQnHfFAKbFyNQKmXy7-3">
          <mxGeometry width="50" height="50" relative="1" as="geometry">
            <mxPoint x="330" y="430" as="sourcePoint" />
            <mxPoint x="280" y="400" as="targetPoint" />
          </mxGeometry>
        </mxCell>
        <mxCell id="xTqQnHfFAKbFyNQKmXy7-12" value="" style="endArrow=none;html=1;rounded=0;exitX=1;exitY=0.5;exitDx=0;exitDy=0;" edge="1" parent="1" source="xTqQnHfFAKbFyNQKmXy7-3">
          <mxGeometry width="50" height="50" relative="1" as="geometry">
            <mxPoint x="610" y="380" as="sourcePoint" />
            <mxPoint x="690" y="430" as="targetPoint" />
          </mxGeometry>
        </mxCell>
        <mxCell id="xTqQnHfFAKbFyNQKmXy7-13" value="" style="endArrow=classic;html=1;rounded=0;" edge="1" parent="1" target="xTqQnHfFAKbFyNQKmXy7-4">
          <mxGeometry width="50" height="50" relative="1" as="geometry">
            <mxPoint x="690" y="430" as="sourcePoint" />
            <mxPoint x="580" y="150" as="targetPoint" />
          </mxGeometry>
        </mxCell>
        <mxCell id="xTqQnHfFAKbFyNQKmXy7-17" value="" style="edgeStyle=orthogonalEdgeStyle;rounded=0;orthogonalLoop=1;jettySize=auto;html=1;fillColor=#ffe6cc;strokeColor=#d79b00;" edge="1" parent="1" source="xTqQnHfFAKbFyNQKmXy7-14" target="xTqQnHfFAKbFyNQKmXy7-16">
          <mxGeometry relative="1" as="geometry" />
        </mxCell>
        <mxCell id="xTqQnHfFAKbFyNQKmXy7-14" value="Decoder" style="rounded=1;whiteSpace=wrap;html=1;fillColor=#ffe6cc;strokeColor=#d79b00;" vertex="1" parent="1">
          <mxGeometry x="630" y="170" width="120" height="60" as="geometry" />
        </mxCell>
        <mxCell id="xTqQnHfFAKbFyNQKmXy7-16" value="Output data" style="rounded=1;whiteSpace=wrap;html=1;fillColor=#ffe6cc;strokeColor=#d79b00;" vertex="1" parent="1">
          <mxGeometry x="630" y="50" width="120" height="60" as="geometry" />
        </mxCell>
        <mxCell id="xTqQnHfFAKbFyNQKmXy7-18" value="DCI" style="rounded=1;whiteSpace=wrap;html=1;" vertex="1" parent="1">
          <mxGeometry x="260" y="600" width="120" height="60" as="geometry" />
        </mxCell>
        <mxCell id="xTqQnHfFAKbFyNQKmXy7-21" value="" style="edgeStyle=orthogonalEdgeStyle;rounded=0;orthogonalLoop=1;jettySize=auto;html=1;" edge="1" parent="1" source="xTqQnHfFAKbFyNQKmXy7-19" target="xTqQnHfFAKbFyNQKmXy7-20">
          <mxGeometry relative="1" as="geometry" />
        </mxCell>
        <mxCell id="xTqQnHfFAKbFyNQKmXy7-19" value="DCI" style="rounded=1;whiteSpace=wrap;html=1;" vertex="1" parent="1">
          <mxGeometry x="640" y="600" width="120" height="60" as="geometry" />
        </mxCell>
        <mxCell id="xTqQnHfFAKbFyNQKmXy7-23" value="" style="edgeStyle=orthogonalEdgeStyle;rounded=0;orthogonalLoop=1;jettySize=auto;html=1;" edge="1" parent="1" source="xTqQnHfFAKbFyNQKmXy7-20" target="xTqQnHfFAKbFyNQKmXy7-22">
          <mxGeometry relative="1" as="geometry" />
        </mxCell>
        <mxCell id="xTqQnHfFAKbFyNQKmXy7-20" value="Channel coding" style="rounded=1;whiteSpace=wrap;html=1;" vertex="1" parent="1">
          <mxGeometry x="640" y="710" width="120" height="60" as="geometry" />
        </mxCell>
        <mxCell id="xTqQnHfFAKbFyNQKmXy7-22" value="Modulation" style="rounded=1;whiteSpace=wrap;html=1;" vertex="1" parent="1">
          <mxGeometry x="640" y="820" width="120" height="60" as="geometry" />
        </mxCell>
        <mxCell id="xTqQnHfFAKbFyNQKmXy7-24" value="Phiysical channel" style="rounded=1;whiteSpace=wrap;html=1;" vertex="1" parent="1">
          <mxGeometry x="450" y="900" width="120" height="60" as="geometry" />
        </mxCell>
        <mxCell id="xTqQnHfFAKbFyNQKmXy7-25" value="" style="endArrow=none;html=1;rounded=0;entryX=0.5;entryY=1;entryDx=0;entryDy=0;" edge="1" parent="1" target="xTqQnHfFAKbFyNQKmXy7-22">
          <mxGeometry width="50" height="50" relative="1" as="geometry">
            <mxPoint x="700" y="930" as="sourcePoint" />
            <mxPoint x="680" y="900" as="targetPoint" />
          </mxGeometry>
        </mxCell>
        <mxCell id="xTqQnHfFAKbFyNQKmXy7-26" value="" style="endArrow=classic;html=1;rounded=0;entryX=1;entryY=0.5;entryDx=0;entryDy=0;" edge="1" parent="1" target="xTqQnHfFAKbFyNQKmXy7-24">
          <mxGeometry width="50" height="50" relative="1" as="geometry">
            <mxPoint x="700" y="930" as="sourcePoint" />
            <mxPoint x="760" y="960" as="targetPoint" />
          </mxGeometry>
        </mxCell>
        <mxCell id="xTqQnHfFAKbFyNQKmXy7-35" value="" style="edgeStyle=orthogonalEdgeStyle;rounded=0;orthogonalLoop=1;jettySize=auto;html=1;" edge="1" parent="1" source="xTqQnHfFAKbFyNQKmXy7-27" target="xTqQnHfFAKbFyNQKmXy7-30">
          <mxGeometry relative="1" as="geometry" />
        </mxCell>
        <mxCell id="xTqQnHfFAKbFyNQKmXy7-27" value="Demodulation" style="rounded=1;whiteSpace=wrap;html=1;" vertex="1" parent="1">
          <mxGeometry x="260" y="820" width="120" height="60" as="geometry" />
        </mxCell>
        <mxCell id="xTqQnHfFAKbFyNQKmXy7-28" value="gNB" style="text;html=1;strokeColor=none;fillColor=none;align=center;verticalAlign=middle;whiteSpace=wrap;rounded=0;" vertex="1" parent="1">
          <mxGeometry x="670" y="570" width="60" height="30" as="geometry" />
        </mxCell>
        <mxCell id="xTqQnHfFAKbFyNQKmXy7-29" value="UE" style="text;html=1;strokeColor=none;fillColor=none;align=center;verticalAlign=middle;whiteSpace=wrap;rounded=0;" vertex="1" parent="1">
          <mxGeometry x="290" y="570" width="60" height="30" as="geometry" />
        </mxCell>
        <mxCell id="xTqQnHfFAKbFyNQKmXy7-37" value="" style="edgeStyle=orthogonalEdgeStyle;rounded=0;orthogonalLoop=1;jettySize=auto;html=1;" edge="1" parent="1" source="xTqQnHfFAKbFyNQKmXy7-30" target="xTqQnHfFAKbFyNQKmXy7-18">
          <mxGeometry relative="1" as="geometry" />
        </mxCell>
        <mxCell id="xTqQnHfFAKbFyNQKmXy7-30" value="Channel decoding" style="rounded=1;whiteSpace=wrap;html=1;" vertex="1" parent="1">
          <mxGeometry x="260" y="710" width="120" height="60" as="geometry" />
        </mxCell>
        <mxCell id="xTqQnHfFAKbFyNQKmXy7-33" value="" style="endArrow=none;html=1;rounded=0;entryX=0;entryY=0.5;entryDx=0;entryDy=0;" edge="1" parent="1" target="xTqQnHfFAKbFyNQKmXy7-24">
          <mxGeometry width="50" height="50" relative="1" as="geometry">
            <mxPoint x="320" y="930" as="sourcePoint" />
            <mxPoint x="290" y="920" as="targetPoint" />
          </mxGeometry>
        </mxCell>
        <mxCell id="xTqQnHfFAKbFyNQKmXy7-34" value="" style="endArrow=classic;html=1;rounded=0;entryX=0.5;entryY=1;entryDx=0;entryDy=0;" edge="1" parent="1" target="xTqQnHfFAKbFyNQKmXy7-27">
          <mxGeometry width="50" height="50" relative="1" as="geometry">
            <mxPoint x="320" y="930" as="sourcePoint" />
            <mxPoint x="200" y="880" as="targetPoint" />
          </mxGeometry>
        </mxCell>
        <mxCell id="xTqQnHfFAKbFyNQKmXy7-42" value="" style="endArrow=classic;html=1;rounded=0;exitX=0;exitY=0.5;exitDx=0;exitDy=0;entryX=0;entryY=0.5;entryDx=0;entryDy=0;dashed=1;" edge="1" parent="1" source="xTqQnHfFAKbFyNQKmXy7-27" target="xTqQnHfFAKbFyNQKmXy7-18">
          <mxGeometry width="50" height="50" relative="1" as="geometry">
            <mxPoint x="70" y="780" as="sourcePoint" />
            <mxPoint x="120" y="730" as="targetPoint" />
            <Array as="points">
              <mxPoint x="130" y="750" />
            </Array>
          </mxGeometry>
        </mxCell>
        <mxCell id="xTqQnHfFAKbFyNQKmXy7-43" value="" style="endArrow=classic;html=1;rounded=0;entryX=1;entryY=0.5;entryDx=0;entryDy=0;exitX=1;exitY=0.5;exitDx=0;exitDy=0;dashed=1;" edge="1" parent="1" source="xTqQnHfFAKbFyNQKmXy7-19" target="xTqQnHfFAKbFyNQKmXy7-22">
          <mxGeometry width="50" height="50" relative="1" as="geometry">
            <mxPoint x="930" y="640" as="sourcePoint" />
            <mxPoint x="790" y="690" as="targetPoint" />
            <Array as="points">
              <mxPoint x="880" y="740" />
            </Array>
          </mxGeometry>
        </mxCell>
        <mxCell id="xTqQnHfFAKbFyNQKmXy7-44" value="&lt;font style=&quot;font-size: 18px;&quot;&gt;Openairinterface environment&lt;/font&gt;" style="text;html=1;strokeColor=none;fillColor=none;align=center;verticalAlign=middle;whiteSpace=wrap;rounded=0;" vertex="1" parent="1">
          <mxGeometry x="380" y="520" width="270" height="30" as="geometry" />
        </mxCell>
      </root>
    </mxGraphModel>
  </diagram>
</mxfile>
